{
  "title": "Orange is the new black S04E05 720p WEBRip x264-TheRival",
  "uid": 14965743,
  "size": 977342153,
  "categoryP": "video",
  "categoryS": "hd___tv_shows",
  "magnet": "?xt=urn:btih:e399ff956956115559487ab33730444a44f0cf0c&amp;dn=Orange+is+the+new+black+S04E05+720p+WEBRip+x264-TheRival&amp;tr=udp%3A%2F%2Ftracker.leechers-paradise.org%3A6969&amp;tr=udp%3A%2F%2Fzer0day.ch%3A1337&amp;tr=udp%3A%2F%2Fopen.demonii.com%3A1337&amp;tr=udp%3A%2F%2Ftracker.coppersurfer.tk%3A6969&amp;tr=udp%3A%2F%2Fexodus.desync.com%3A6969",
  "seeders": 70,
  "leechers": 6,
  "uploader": "TheRival",
  "files": 2,
  "time": 1466181855,
  "description": "http://extraimago.com/image/arAi \nhttp://extraimago.com/image/arAl \nhttp://extraimago.com/image/arAI\r\n\r\nVideo\r\nID : 1\r\nFormat : AVC\r\nFormat/Info : Advanced Video Codec\r\nFormat profile :   \r\nFormat settings, CABAC : Yes\r\nFormat settings, ReFrames : 2 frames\r\nFormat settings, GOP : M=1, N=24\r\nCodec ID : avc1\r\nCodec ID/Info : Advanced Video Coding\r\nDuration : 57mn 25s\r\nSource duration : 57mn 25s\r\nBit rate mode : Variable\r\nBit rate : 2 138 Kbps\r\nMaximum bit rate : 3 315 Kbps\r\nWidth : 1 280 pixels\r\nHeight : 720 pixels\r\nDisplay aspect ratio : 16:9\r\nFrame rate mode : Constant\r\nFrame rate : 23.976 (24000/1001) fps\r\nColor space : YUV\r\nChroma subsampling : 4:2:0\r\nBit depth : 8 bits\r\nScan type : Progressive\r\nBits/(Pixel*Frame) : 0.097\r\nStream size : 878 MiB (94%)\r\nSource stream size : 878 MiB (94%)\r\nEncoded date : UTC 2016-06-17 14:31:18\r\nTagged date : UTC 2016-06-17 14:38:45\r\nColor primaries : BT.709\r\nTransfer characteristics : BT.709\r\nMatrix coefficients : BT.709\r\n\r\nAudio\r\nID : 2\r\nFormat : AAC\r\nFormat/Info : Advanced Audio Codec\r\nFormat profile : LC\r\nCodec ID : 40\r\nDuration : 57mn 24s\r\nBit rate mode : Variable\r\nBit rate : 128 Kbps\r\nMaximum bit rate : 131 Kbps\r\nChannel(s) : 2 channels\r\nChannel positions : Front: L R\r\nSampling rate : 48.0 KHz\r\nFrame rate : 46.875 fps (1024 spf)\r\nCompression mode : Lossy\r\nStream size : 52.6 MiB (6%)\r\nTitle : Undetermined (aac 2.0)\r\nDefault : Yes\r\nAlternate group : 1",
  "parsed": {
    "xt": "urn:btih:e399ff956956115559487ab33730444a44f0cf0c",
    "dn": "Orange is the new black S04E05 720p WEBRip x264-TheRival",
    "tr": [
      "udp://exodus.desync.com:6969",
      "udp://open.demonii.com:1337",
      "udp://tracker.coppersurfer.tk:6969",
      "udp://tracker.leechers-paradise.org:6969",
      "udp://zer0day.ch:1337"
    ],
    "infoHash": "e399ff956956115559487ab33730444a44f0cf0c",
    "infoHashBuffer": {
      "type": "Buffer",
      "data": [
        227,
        153,
        255,
        149,
        105,
        86,
        17,
        85,
        89,
        72,
        122,
        179,
        55,
        48,
        68,
        74,
        68,
        240,
        207,
        12
      ]
    },
    "name": "Orange is the new black S04E05 720p WEBRip x264-TheRival",
    "announce": [
      "udp://exodus.desync.com:6969",
      "udp://open.demonii.com:1337",
      "udp://tracker.coppersurfer.tk:6969",
      "udp://tracker.leechers-paradise.org:6969",
      "udp://zer0day.ch:1337"
    ],
    "urlList": []
  },
  "previous": 76,
  "peers": 100,
  "last_updated": "2016-12-25T16:28:40.784Z"
}